<?xml version="1.0" encoding="UTF-8" standalone="no"?>
<!DOCTYPE svg PUBLIC "-//W3C//DTD SVG 1.1//EN"
 "http://www.w3.org/Graphics/SVG/1.1/DTD/svg11.dtd">
<!-- Generated by graphviz version 9.0.0 (20230911.1827)
 -->
<!-- Title: G Pages: 1 -->
<svg width="282pt" height="243pt"
 viewBox="0.00 0.00 282.13 243.25" xmlns="http://www.w3.org/2000/svg" xmlns:xlink="http://www.w3.org/1999/xlink">
<g id="graph0" class="graph" transform="scale(1 1) rotate(0) translate(4 239.25)">
<title>G</title>
<polygon fill="white" stroke="none" points="-4,4 -4,-239.25 278.13,-239.25 278.13,4 -4,4"/>
<text text-anchor="middle" x="137.07" y="-6.45" font-family="Times New Roman,serif" font-size="14.00">CallGraph</text>
<!-- test_func2 -->
<g id="node1" class="node">
<title>test_func2</title>
<ellipse fill="none" stroke="black" cx="49.57" cy="-41.75" rx="49.57" ry="18"/>
<text text-anchor="middle" x="49.57" y="-36.33" font-family="Times New Roman,serif" font-size="14.00">test_func2</text>
</g>
<!-- test_func3 -->
<g id="node2" class="node">
<title>test_func3</title>
<ellipse fill="none" stroke="black" cx="166.57" cy="-41.75" rx="49.57" ry="18"/>
<text text-anchor="middle" x="166.57" y="-36.33" font-family="Times New Roman,serif" font-size="14.00">test_func3</text>
</g>
<!-- test_func4 -->
<g id="node3" class="node">
<title>test_func4</title>
<ellipse fill="none" stroke="black" cx="107.57" cy="-129.5" rx="49.57" ry="18"/>
<text text-anchor="middle" x="107.57" y="-124.08" font-family="Times New Roman,serif" font-size="14.00">test_func4</text>
</g>
<!-- test_func4&#45;&gt;test_func2 -->
<g id="edge1" class="edge">
<title>test_func4&#45;&gt;test_func2</title>
<path fill="none" stroke="black" d="M96.11,-111.56C87.93,-99.46 76.76,-82.95 67.42,-69.14"/>
<polygon fill="black" stroke="black" points="70.35,-67.23 61.85,-60.91 64.55,-71.15 70.35,-67.23"/>
<text text-anchor="middle" x="87.94" y="-80.2" font-family="Times New Roman,serif" font-size="14.00">1</text>
</g>
<!-- test_func4&#45;&gt;test_func3 -->
<g id="edge2" class="edge">
<title>test_func4&#45;&gt;test_func3</title>
<path fill="none" stroke="black" d="M119.22,-111.56C127.55,-99.46 138.91,-82.95 148.41,-69.14"/>
<polygon fill="black" stroke="black" points="151.29,-71.13 154.08,-60.9 145.52,-67.16 151.29,-71.13"/>
<text text-anchor="middle" x="145.94" y="-80.2" font-family="Times New Roman,serif" font-size="14.00">1</text>
</g>
<!-- test_func -->
<g id="node4" class="node">
<title>test_func</title>
<ellipse fill="none" stroke="black" cx="166.57" cy="-217.25" rx="45.08" ry="18"/>
<text text-anchor="middle" x="166.57" y="-211.82" font-family="Times New Roman,serif" font-size="14.00">test_func</text>
</g>
<!-- test_func&#45;&gt;test_func4 -->
<g id="edge3" class="edge">
<title>test_func&#45;&gt;test_func4</title>
<path fill="none" stroke="black" d="M155.19,-199.72C146.76,-187.46 135.1,-170.51 125.42,-156.45"/>
<polygon fill="black" stroke="black" points="128.52,-154.78 119.97,-148.52 122.75,-158.74 128.52,-154.78"/>
<text text-anchor="middle" x="145.94" y="-167.95" font-family="Times New Roman,serif" font-size="14.00">2</text>
</g>
<!-- test_func1 -->
<g id="node5" class="node">
<title>test_func1</title>
<ellipse fill="none" stroke="black" cx="224.57" cy="-129.5" rx="49.57" ry="18"/>
<text text-anchor="middle" x="224.57" y="-124.08" font-family="Times New Roman,serif" font-size="14.00">test_func1</text>
</g>
<!-- test_func&#45;&gt;test_func1 -->
<g id="edge4" class="edge">
<title>test_func&#45;&gt;test_func1</title>
<path fill="none" stroke="black" d="M177.75,-199.72C186.04,-187.46 197.5,-170.51 207.01,-156.45"/>
<polygon fill="black" stroke="black" points="209.67,-158.77 212.37,-148.53 203.87,-154.85 209.67,-158.77"/>
<text text-anchor="middle" x="203.94" y="-167.95" font-family="Times New Roman,serif" font-size="14.00">1</text>
</g>
</g>
</svg>
